<?xml version="1.0" encoding="utf-8"?>
<!-- Generator: Adobe Illustrator 24.0.1, SVG Export Plug-In . SVG Version: 6.00 Build 0)  -->
<svg version="1.1" id="Layer_2" xmlns="http://www.w3.org/2000/svg" xmlns:xlink="http://www.w3.org/1999/xlink" x="0px" y="0px"
	 viewBox="0 0 107.15 58.2" style="enable-background:new 0 0 107.15 58.2;" xml:space="preserve">
<style type="text/css">
	.st0{fill:#222E65;}
	.st1{fill:#222F66;}
	.st2{fill:#95B6DF;}
</style>
<g>
	<path class="st0" d="M4.61,54.67c0-0.73-0.26-1.32-1.27-1.87l-1.09-0.61c-0.59-0.34-0.75-0.51-0.75-0.82
		c0-0.41,0.29-0.64,0.96-0.64c0.59,0,1.2,0.03,1.79,0.09h0.01c0.1,0,0.16-0.07,0.16-0.17v-0.67c0-0.09-0.07-0.16-0.16-0.18
		c-0.31-0.07-1.15-0.16-1.75-0.16c-1.7,0-2.28,0.72-2.28,1.73c0,0.64,0.23,1.18,1.07,1.68l1.21,0.72c0.6,0.36,0.78,0.53,0.78,0.9
		c0,0.52-0.25,0.82-1.06,0.82c-0.34,0-1.25-0.05-1.61-0.09H0.6c-0.09,0-0.17,0.07-0.17,0.17v0.66c0,0.1,0.08,0.17,0.17,0.18
		c0.44,0.1,0.93,0.17,1.61,0.17C4.03,56.58,4.61,55.59,4.61,54.67"/>
	<path class="st0" d="M9.73,56.26v-0.59c0-0.1-0.08-0.18-0.18-0.18H7.7c-0.53,0-0.72-0.19-0.72-0.79v-1.18h2.47
		c0.1,0,0.18-0.09,0.18-0.19v-0.65c0-0.11-0.08-0.19-0.18-0.19H6.98V51.5c0-0.6,0.19-0.79,0.72-0.79h1.86c0.1,0,0.18-0.08,0.18-0.18
		v-0.58c0-0.13-0.04-0.18-0.18-0.19c-0.3-0.05-0.65-0.14-1.73-0.14c-1.19,0-2.11,0.33-2.11,1.88v3.19c0,1.56,0.92,1.88,2.11,1.88
		c1.08,0,1.43-0.08,1.73-0.13C9.69,56.43,9.73,56.38,9.73,56.26"/>
	<path class="st0" d="M15.4,56.2v-3.07c0-0.1-0.08-0.18-0.18-0.18h-0.9c-0.1,0-0.17,0.08-0.17,0.18v2.33
		c-0.29,0.02-0.57,0.03-0.91,0.03c-0.53,0-1.17-0.43-1.17-1.72v-1.31c0-1.31,0.58-1.74,1.2-1.74c0.88,0,1.5,0.04,1.92,0.08h0.02
		c0.15,0,0.18-0.06,0.18-0.19v-0.61c0-0.13-0.05-0.17-0.17-0.2c-0.3-0.05-1.08-0.17-1.96-0.17c-1.08,0-2.47,0.65-2.47,2.83v1.31
		c0,2.15,1.46,2.81,2.44,2.81c0.94,0,1.53-0.07,1.99-0.16C15.35,56.39,15.4,56.32,15.4,56.2"/>
	<path class="st0" d="M21.75,53.99v-4.1c0-0.1-0.08-0.17-0.18-0.17h-0.9c-0.1,0-0.18,0.07-0.18,0.17v4.1c0,1.05-0.26,1.53-1.24,1.53
		c-0.98,0-1.24-0.49-1.24-1.53v-4.1c0-0.1-0.08-0.17-0.18-0.17h-0.9c-0.1,0-0.18,0.07-0.18,0.17v4.1c0,1.95,1.04,2.59,2.5,2.59
		C20.71,56.58,21.75,55.93,21.75,53.99"/>
	<path class="st0" d="M26.53,51.78c0,0.8-0.43,1.06-1.37,1.06c-0.15,0-0.66-0.02-0.81-0.03v-2.06c0.17-0.02,0.62-0.04,0.81-0.04
		c0.91,0,1.37,0.3,1.37,0.99V51.78z M28.01,56.39l-0.02-0.07l-1.43-2.67c0.75-0.3,1.23-0.9,1.23-1.87V51.7
		c0-1.56-1.22-2.08-2.63-2.08c-0.66,0-1.3,0.05-1.78,0.13c-0.18,0.02-0.3,0.09-0.3,0.27v6.3c0,0.1,0.08,0.19,0.19,0.19h0.91
		c0.1,0,0.17-0.09,0.17-0.19v-2.48c0.22,0.01,0.57,0.04,0.81,0.04h0.13l1.31,2.44c0.05,0.09,0.08,0.19,0.18,0.19h1.11
		C27.97,56.51,28.01,56.46,28.01,56.39"/>
	<path class="st0" d="M32.11,53.57h-1.61l0.66-2.72c0.02-0.12,0.05-0.15,0.14-0.15c0.09,0,0.11,0.03,0.14,0.15L32.11,53.57z
		 M34.08,56.35l-0.01-0.05l-1.49-5.73c-0.22-0.85-0.87-0.94-1.26-0.94c-0.39,0-1.05,0.09-1.26,0.94l-1.5,5.73l-0.01,0.05
		c0,0.09,0.07,0.16,0.16,0.16h0.96c0.08,0,0.15-0.08,0.17-0.16l0.42-1.74h2.1l0.42,1.74c0.01,0.08,0.09,0.16,0.17,0.16h0.96
		C34.01,56.51,34.08,56.44,34.08,56.35"/>
	<path class="st0" d="M40.07,56.14v-6.26c0-0.1-0.07-0.17-0.17-0.17h-0.79c-0.1,0-0.17,0.07-0.17,0.17v4.81l-0.05,0.08l-0.07-0.07
		l-2.13-4.69c-0.11-0.25-0.21-0.3-0.39-0.3h-0.99c-0.2,0-0.36,0.17-0.36,0.37v6.24c0,0.1,0.08,0.18,0.18,0.18h0.78
		c0.1,0,0.18-0.08,0.18-0.18v-4.6l0.04-0.07l0.08,0.07l2.02,4.45c0.14,0.33,0.34,0.33,0.55,0.33h0.92
		C39.92,56.5,40.07,56.34,40.07,56.14"/>
	<path class="st0" d="M44.6,56.87l-0.11-0.06h-0.97c-0.11,0-0.15,0.04-0.24,0.14l-0.85,1.1l-0.04,0.09l0.08,0.06h0.79
		c0.11,0,0.13-0.04,0.2-0.12l1.09-1.13L44.6,56.87z M45.5,56.22v-0.61c0-0.11-0.04-0.2-0.17-0.2H45.3
		c-0.32,0.03-0.94,0.08-1.42,0.08c-0.77,0-1.32-0.44-1.32-1.72v-1.33c0-1.3,0.55-1.71,1.32-1.71c0.48,0,1.1,0.04,1.42,0.07h0.02
		c0.13,0,0.17-0.08,0.17-0.2v-0.6c0-0.13-0.08-0.18-0.2-0.21c-0.13-0.05-0.74-0.16-1.44-0.16c-1.09,0-2.57,0.5-2.57,2.81v1.33
		c0,2.26,1.48,2.81,2.57,2.81c0.71,0,1.31-0.11,1.44-0.15C45.41,56.39,45.5,56.35,45.5,56.22"/>
	<path class="st0" d="M49.67,53.57h-1.61l0.66-2.72c0.02-0.12,0.05-0.15,0.14-0.15c0.09,0,0.11,0.03,0.15,0.15L49.67,53.57z
		 M51.64,56.35l-0.01-0.05l-1.49-5.73c-0.22-0.85-0.87-0.94-1.26-0.94s-1.05,0.09-1.26,0.94l-1.49,5.73l-0.01,0.05
		c0,0.09,0.07,0.16,0.16,0.16h0.97c0.08,0,0.15-0.08,0.17-0.16l0.42-1.74h2.1l0.42,1.74c0.01,0.08,0.09,0.16,0.17,0.16h0.96
		C51.56,56.51,51.64,56.44,51.64,56.35"/>
	<path class="st0" d="M58.33,51.78c0,0.8-0.42,1.06-1.36,1.06c-0.15,0-0.66-0.02-0.81-0.03v-2.06c0.17-0.02,0.62-0.04,0.81-0.04
		c0.91,0,1.36,0.3,1.36,0.99V51.78z M59.81,56.39l-0.02-0.07l-1.43-2.67c0.75-0.3,1.23-0.9,1.23-1.87V51.7
		c0-1.56-1.23-2.08-2.63-2.08c-0.66,0-1.31,0.05-1.78,0.13c-0.19,0.02-0.3,0.09-0.3,0.27v6.3c0,0.1,0.08,0.19,0.18,0.19h0.91
		c0.1,0,0.17-0.09,0.17-0.19v-2.48c0.21,0.01,0.58,0.04,0.81,0.04h0.13l1.32,2.44c0.04,0.09,0.08,0.19,0.18,0.19h1.11
		C59.77,56.51,59.81,56.46,59.81,56.39"/>
	<path class="st0" d="M64.41,53.72c0,1.21-0.43,1.75-1.32,1.75c-0.89,0-1.31-0.54-1.31-1.75v-1.24c0-1.21,0.43-1.74,1.31-1.74
		c0.89,0,1.32,0.53,1.32,1.74V53.72z M65.68,53.72v-1.24c0-2.01-1.1-2.85-2.6-2.85c-1.5,0-2.59,0.84-2.59,2.85v1.24
		c0,2.02,1.09,2.86,2.59,2.86C64.59,56.58,65.68,55.74,65.68,53.72"/>
	<path class="st0" d="M70.52,53.78c0,1.36-0.7,1.73-1.61,1.73c-0.34,0-0.57-0.02-0.76-0.03v-4.75c0.19-0.01,0.43-0.02,0.76-0.02
		c0.91,0,1.61,0.36,1.61,1.73V53.78z M71.78,53.78v-1.34c0-1.82-1.04-2.81-2.86-2.81c-0.64,0-1.52,0.07-1.79,0.12
		c-0.15,0.02-0.24,0.1-0.24,0.28v6.16c0,0.19,0.09,0.26,0.24,0.29c0.27,0.04,1.15,0.11,1.79,0.11
		C70.74,56.58,71.78,55.59,71.78,53.78"/>
	<path class="st0" d="M76.71,53.72c0,1.21-0.43,1.75-1.32,1.75c-0.89,0-1.32-0.54-1.32-1.75v-1.24c0-1.21,0.43-1.74,1.32-1.74
		c0.89,0,1.32,0.53,1.32,1.74V53.72z M77.99,53.72v-1.24c0-2.01-1.09-2.85-2.59-2.85c-1.51,0-2.59,0.84-2.59,2.85v1.24
		c0,2.02,1.09,2.86,2.59,2.86C76.9,56.58,77.99,55.74,77.99,53.72"/>
	<path class="st0" d="M84.03,49.86c0-0.09-0.07-0.15-0.16-0.15H82.9c-0.08,0-0.16,0.07-0.18,0.15l-1.31,5.5
		c-0.03,0.11-0.06,0.15-0.15,0.15c-0.09,0-0.12-0.04-0.15-0.15l-1.32-5.5c-0.02-0.08-0.09-0.15-0.17-0.15h-0.97
		c-0.09,0-0.16,0.06-0.16,0.15l0,0.05l1.5,5.73c0.22,0.85,0.87,0.93,1.27,0.93c0.39,0,1.05-0.08,1.26-0.93l1.49-5.73L84.03,49.86z"
		/>
	<path class="st0" d="M86.21,56.32v-6.43c0-0.1-0.08-0.17-0.18-0.17h-0.9c-0.1,0-0.18,0.07-0.18,0.17v6.43
		c0,0.1,0.08,0.18,0.18,0.18h0.9C86.13,56.5,86.21,56.42,86.21,56.32"/>
	<path class="st0" d="M91.39,47.92l-0.1-0.07h-0.95c-0.12,0-0.15,0.04-0.24,0.14l-0.86,1.1l-0.04,0.09l0.08,0.07h0.78
		c0.11,0,0.15-0.04,0.22-0.12l1.07-1.14L91.39,47.92z M90.66,53.57h-1.6l0.65-2.72c0.03-0.12,0.06-0.15,0.15-0.15
		c0.09,0,0.12,0.03,0.15,0.15L90.66,53.57z M92.62,56.35l-0.01-0.05l-1.49-5.73c-0.22-0.85-0.87-0.94-1.26-0.94
		c-0.39,0-1.05,0.09-1.26,0.94L87.1,56.3l-0.01,0.05c0,0.09,0.07,0.16,0.16,0.16h0.96c0.08,0,0.15-0.08,0.18-0.16l0.42-1.74h2.1
		l0.42,1.74c0.01,0.08,0.09,0.16,0.17,0.16h0.97C92.56,56.51,92.62,56.44,92.62,56.35"/>
	<path class="st0" d="M96.94,51.78c0,0.8-0.43,1.06-1.36,1.06c-0.15,0-0.66-0.02-0.81-0.03v-2.06c0.17-0.02,0.62-0.04,0.81-0.04
		c0.91,0,1.36,0.3,1.36,0.99V51.78z M98.42,56.39l-0.02-0.07l-1.43-2.67c0.74-0.3,1.23-0.9,1.23-1.87V51.7
		c0-1.56-1.22-2.08-2.63-2.08c-0.66,0-1.31,0.05-1.79,0.13c-0.18,0.02-0.29,0.09-0.29,0.27v6.3c0,0.1,0.08,0.19,0.18,0.19h0.91
		c0.1,0,0.17-0.09,0.17-0.19v-2.48c0.21,0.01,0.57,0.04,0.81,0.04h0.13l1.31,2.44c0.04,0.09,0.08,0.19,0.18,0.19h1.11
		C98.39,56.51,98.42,56.46,98.42,56.39"/>
	<path class="st0" d="M100.73,56.32v-6.43c0-0.1-0.08-0.17-0.18-0.17h-0.9c-0.1,0-0.18,0.07-0.18,0.17v6.43
		c0,0.1,0.08,0.18,0.18,0.18h0.9C100.65,56.5,100.73,56.42,100.73,56.32"/>
	<path class="st0" d="M105.18,53.57h-1.6l0.65-2.72c0.03-0.12,0.06-0.15,0.15-0.15c0.09,0,0.12,0.03,0.15,0.15L105.18,53.57z
		 M107.14,56.35l-0.01-0.05l-1.49-5.73c-0.22-0.85-0.88-0.94-1.27-0.94c-0.38,0-1.05,0.09-1.26,0.94l-1.49,5.73l-0.01,0.05
		c0,0.09,0.07,0.16,0.16,0.16h0.96c0.08,0,0.16-0.08,0.18-0.16l0.42-1.74h2.1l0.43,1.74c0.01,0.08,0.09,0.16,0.17,0.16h0.97
		C107.07,56.51,107.14,56.44,107.14,56.35"/>
	<path class="st0" d="M3.88,44.27h-2.1l0.86-3.14c0.02-0.11,0.09-0.17,0.19-0.17c0.09,0,0.14,0.06,0.17,0.17L3.88,44.27z
		 M5.56,47.21l-0.01-0.07l-1.76-6.22c-0.16-0.58-0.6-0.71-0.95-0.71c-0.37,0-0.81,0.14-0.97,0.72l-1.75,6.21L0.1,47.21
		c0,0.08,0.06,0.15,0.16,0.15h0.56c0.07,0,0.15-0.07,0.17-0.14l0.61-2.2h2.46l0.61,2.2c0.02,0.07,0.08,0.14,0.17,0.14H5.4
		C5.5,47.36,5.56,47.29,5.56,47.21"/>
	<path class="st0" d="M11.47,44.79v-4.33c0-0.11-0.09-0.19-0.19-0.19h-0.51c-0.1,0-0.18,0.09-0.18,0.19v4.33
		c0,1.24-0.38,1.9-1.55,1.9s-1.56-0.67-1.56-1.9v-4.33c0-0.11-0.08-0.19-0.18-0.19H6.79c-0.1,0-0.18,0.09-0.18,0.19v4.33
		c0,1.82,0.89,2.64,2.43,2.64C10.58,47.42,11.47,46.6,11.47,44.79"/>
	<path class="st0" d="M17.75,40.86v-0.42c0-0.11-0.07-0.18-0.18-0.18H13c-0.11,0-0.19,0.08-0.19,0.18v0.42
		c0,0.11,0.08,0.15,0.19,0.15h1.85v6.16c0,0.1,0.08,0.19,0.17,0.19h0.53c0.1,0,0.16-0.1,0.16-0.19v-6.16h1.86
		C17.67,41.01,17.75,40.96,17.75,40.86"/>
	<path class="st0" d="M22.78,44.43c0,1.6-0.65,2.21-1.69,2.21c-1.04,0-1.69-0.61-1.69-2.21v-1.24c0-1.6,0.66-2.2,1.69-2.2
		c1.05,0,1.69,0.6,1.69,2.2V44.43z M23.66,44.43v-1.24c0-2.12-1.07-2.99-2.56-2.99c-1.49,0-2.57,0.88-2.57,2.99v1.24
		c0,2.12,1.08,2.99,2.57,2.99C22.59,47.42,23.66,46.54,23.66,44.43"/>
	<path class="st0" d="M28.96,42.32c0,1.03-0.63,1.32-1.8,1.32c-0.22,0-0.63-0.01-1.04-0.02v-2.61c0.23-0.03,0.75-0.03,1.04-0.03
		c1.19,0,1.8,0.31,1.8,1.26V42.32z M30.09,47.23l-0.03-0.08l-1.73-2.91c0.87-0.23,1.49-0.85,1.49-1.92v-0.07
		c0-1.54-1.16-2.05-2.66-2.05c-0.55,0-1.27,0.03-1.67,0.08c-0.17,0.02-0.23,0.08-0.23,0.21v6.68c0,0.11,0.07,0.19,0.17,0.19h0.51
		c0.1,0,0.17-0.09,0.17-0.19v-2.81c0.5,0.02,0.73,0.03,1.04,0.03h0.25l1.7,2.84c0.08,0.13,0.13,0.13,0.24,0.13h0.61
		C30.04,47.36,30.09,47.3,30.09,47.23"/>
	<path class="st0" d="M32.46,47.17v-6.72c0-0.1-0.07-0.18-0.17-0.18h-0.52c-0.1,0-0.17,0.09-0.17,0.18v6.72
		c0,0.11,0.08,0.19,0.17,0.19h0.52C32.4,47.36,32.46,47.26,32.46,47.17"/>
	<path class="st0" d="M38.27,44.46c0,1.71-0.87,2.22-2.01,2.22c-0.44,0-0.75,0-1.06-0.02v-5.68c0.32-0.03,0.61-0.03,1.06-0.03
		c1.14,0,2.01,0.49,2.01,2.22V44.46z M39.14,44.46v-1.29c0-2.06-1.12-2.97-2.88-2.97c-0.72,0-1.45,0.05-1.73,0.1
		c-0.12,0.02-0.2,0.11-0.2,0.25v6.54c0,0.14,0.08,0.22,0.2,0.24c0.28,0.05,1.01,0.1,1.73,0.1C38.02,47.42,39.14,46.5,39.14,44.46"/>
	<path class="st0" d="M43.81,44.27h-2.1l0.86-3.14c0.03-0.11,0.09-0.17,0.2-0.17c0.09,0,0.14,0.06,0.17,0.17L43.81,44.27z
		 M45.49,47.21l-0.01-0.07l-1.76-6.22c-0.16-0.58-0.61-0.71-0.95-0.71c-0.37,0-0.81,0.14-0.98,0.72l-1.75,6.21l-0.01,0.07
		c0,0.08,0.06,0.15,0.16,0.15h0.56c0.07,0,0.15-0.07,0.17-0.14l0.61-2.2h2.45l0.62,2.2c0.02,0.07,0.07,0.14,0.16,0.14h0.56
		C45.44,47.36,45.49,47.29,45.49,47.21"/>
	<path class="st0" d="M50.74,44.46c0,1.71-0.87,2.22-2.01,2.22c-0.44,0-0.75,0-1.06-0.02v-5.68c0.31-0.03,0.61-0.03,1.06-0.03
		c1.14,0,2.01,0.49,2.01,2.22V44.46z M51.61,44.46v-1.29c0-2.06-1.12-2.97-2.88-2.97c-0.72,0-1.45,0.05-1.73,0.1
		c-0.12,0.02-0.2,0.11-0.2,0.25v6.54c0,0.14,0.08,0.22,0.2,0.24c0.28,0.05,1.01,0.1,1.73,0.1C50.49,47.42,51.61,46.5,51.61,44.46"/>
	<path class="st0" d="M57.16,47.24v-0.48l-0.11-0.11h-1.83c-1,0-1.17-0.27-1.17-1v-1.6h2.92c0.11,0,0.19-0.08,0.19-0.19v-0.37
		c0-0.1-0.08-0.19-0.19-0.19h-2.92v-1.32c0-0.72,0.16-0.99,1.17-0.99h1.83l0.11-0.12V40.4l-0.09-0.14c-0.41-0.04-1.3-0.06-1.86-0.06
		c-1.32,0-2.02,0.51-2.02,1.78v3.67c0,1.27,0.69,1.78,2.02,1.78c0.56,0,1.49-0.01,1.86-0.05L57.16,47.24z"/>
	<path class="st0" d="M67.54,47.08v-6.63c0-0.09-0.07-0.18-0.17-0.18h-0.5c-0.09,0-0.17,0.09-0.17,0.18v5.58l-0.01,0.03l-0.02-0.03
		l-2.92-5.57c-0.08-0.14-0.12-0.19-0.39-0.19h-0.52c-0.15,0-0.28,0.12-0.28,0.27v6.7c0,0.1,0.08,0.12,0.17,0.12h0.5
		c0.1,0,0.17-0.08,0.17-0.18V41.6l0.01-0.02l0.02,0.02l2.94,5.6c0.05,0.09,0.15,0.15,0.31,0.15h0.59
		C67.41,47.36,67.54,47.23,67.54,47.08"/>
	<path class="st0" d="M72.63,44.27h-2.1l0.87-3.14c0.02-0.11,0.08-0.17,0.19-0.17c0.09,0,0.15,0.06,0.18,0.17L72.63,44.27z
		 M74.31,47.21l-0.01-0.07l-1.75-6.22c-0.16-0.58-0.61-0.71-0.96-0.71c-0.37,0-0.81,0.14-0.97,0.72l-1.76,6.21l-0.01,0.07
		c0,0.08,0.07,0.15,0.16,0.15h0.56c0.08,0,0.16-0.07,0.17-0.14l0.61-2.2h2.46l0.62,2.2c0.02,0.07,0.08,0.14,0.16,0.14h0.56
		C74.25,47.36,74.31,47.29,74.31,47.21"/>
	<path class="st0" d="M79.51,47.11v-0.39c0-0.11-0.04-0.16-0.15-0.16h-0.04c-0.34,0.03-1.02,0.08-1.56,0.08
		c-0.93,0-1.66-0.56-1.66-2.17v-1.32c0-1.62,0.73-2.18,1.66-2.18c0.55,0,1.25,0.07,1.59,0.09h0.03c0.09,0,0.11-0.04,0.11-0.11v-0.48
		c0-0.08-0.06-0.11-0.15-0.12c-0.42-0.07-1-0.15-1.59-0.15c-1.17,0-2.51,0.6-2.51,2.95v1.32c0,2.31,1.34,2.94,2.51,2.94
		c0.81,0,1.18-0.05,1.57-0.13C79.43,47.28,79.51,47.22,79.51,47.11"/>
	<path class="st0" d="M81.84,47.17v-6.72c0-0.1-0.07-0.18-0.17-0.18h-0.52c-0.11,0-0.17,0.09-0.17,0.18v6.72
		c0,0.11,0.07,0.19,0.17,0.19h0.52C81.78,47.36,81.84,47.26,81.84,47.17"/>
	<path class="st0" d="M87.81,44.43c0,1.6-0.65,2.21-1.69,2.21c-1.05,0-1.7-0.61-1.7-2.21v-1.24c0-1.6,0.66-2.2,1.7-2.2
		c1.05,0,1.69,0.6,1.69,2.2V44.43z M88.68,44.43v-1.24c0-2.12-1.07-2.99-2.56-2.99c-1.49,0-2.58,0.88-2.58,2.99v1.24
		c0,2.12,1.08,2.99,2.58,2.99C87.61,47.42,88.68,46.54,88.68,44.43"/>
	<path class="st0" d="M95.26,47.08v-6.63c0-0.09-0.06-0.18-0.17-0.18h-0.5c-0.09,0-0.17,0.09-0.17,0.18v5.58l-0.01,0.03l-0.02-0.03
		l-2.92-5.57c-0.08-0.14-0.12-0.19-0.39-0.19h-0.52c-0.16,0-0.28,0.12-0.28,0.27v6.7c0,0.1,0.08,0.12,0.17,0.12h0.49
		c0.1,0,0.17-0.08,0.17-0.18V41.6l0.01-0.02l0.02,0.02l2.93,5.6c0.05,0.09,0.15,0.15,0.31,0.15H95
		C95.14,47.36,95.26,47.23,95.26,47.08"/>
	<path class="st0" d="M100.36,44.27h-2.1l0.87-3.14c0.03-0.11,0.08-0.17,0.19-0.17c0.09,0,0.15,0.06,0.18,0.17L100.36,44.27z
		 M102.04,47.21l-0.01-0.07l-1.75-6.22c-0.16-0.58-0.61-0.71-0.96-0.71c-0.37,0-0.81,0.14-0.97,0.72l-1.76,6.21l-0.01,0.07
		c0,0.08,0.07,0.15,0.16,0.15h0.56c0.08,0,0.15-0.07,0.18-0.14l0.6-2.2h2.46l0.61,2.2c0.02,0.07,0.08,0.14,0.17,0.14h0.55
		C101.98,47.36,102.04,47.29,102.04,47.21"/>
	<path class="st0" d="M107.15,47.21v-0.45l-0.11-0.11h-1.83c-1.01,0-1.18-0.27-1.18-1v-5.18c0-0.11-0.08-0.2-0.18-0.2h-0.49
		c-0.1,0-0.19,0.09-0.19,0.2v5.18c0,1.58,1.01,1.78,2.02,1.78c0.89,0,1.61-0.05,1.85-0.09L107.15,47.21z"/>
	<rect x="3.42" y="0.03" class="st0" width="5.72" height="3.77"/>
	<rect x="77.82" y="0.03" class="st0" width="5.72" height="3.77"/>
	<rect x="100.49" y="0.03" class="st0" width="5.72" height="3.77"/>
	<path class="st0" d="M69.83,0.02h6.02v3.71h-1.78c-0.61,0-1.47,0.55-0.62,2.1c0.24,0.45,8.13,16.67,8.52,17.37
		c2.74,4.79-0.09,9.65-4.49,9.65h-7.24l-1.77-3.71h4.77c0.61,0,1.47-0.55,0.62-2.1C73.44,26.27,65.52,10,65.33,9.68
		C62.6,4.88,65.42,0.02,69.83,0.02"/>
	<path class="st0" d="M10.96,0.03h13.09c2.04,0,6.18,1.49,6.18,6.37l-0.05,26.35L7.17,32.77c-5.52,0-7.49-2.79-7.13-5.73
		c0.27-2.22,7.08-16.18,8-17.25c1.3-1.53,2.8-2.11,5.02-2.08h6.01c-3.14,5.88-6.1,12.54-8.82,18.69c-0.72,1.63-0.13,3.08,2.27,2.95
		h7.06c1.25,0,1.25-0.26,1.25-1.27L20.76,6.21c0-0.84-0.43-2.42-2.75-2.42h-7.05V0.03z"/>
	<path class="st1" d="M98.67,0v3.76h-1.21c-2.32,0-2.75,1.58-2.75,2.42c0,0-0.18,19.06-0.18,26.18v0.37l-9.23-0.01L85.25,6.37
		c0-4.88,4.14-6.37,6.18-6.37H98.67z"/>
	<path class="st2" d="M54.48,4.74C55.25,6.08,67.6,31.5,68.12,32.75h-5.68c-1.64,0-4.06-0.55-4.99-2.08c-0.19-0.3-0.37-0.6-0.5-0.92
		l-2.97-6.05L48.2,11.9c0,0-3.35-6.91-3.4-7c-0.25-0.46-0.48-1.13-1.12-1.13h-1.4C41.8,3.85,41.7,4.21,41.7,4.67v1.72l-0.03,26.4
		h-9.4V2.12c0-1.16,1.03-2.1,2.17-2.07h1.3L47.18,0.1c3.05,0,5.12,1.07,6.66,3.57C54.12,4.13,54.38,4.57,54.48,4.74"/>
</g>
</svg>
